STARTFONT 2.1
FONT -Monotype-Arial-Bold-I-Normal--12-120-75-75-P-69-iso8859-2
SIZE 12 75 75
FONTBOUNDINGBOX 17 15 -3 -3

STARTPROPERTIES 24
FOUNDRY "Monotype"
FAMILY_NAME "Arial"
WEIGHT_NAME "Bold"
SLANT "I"
SETWIDTH_NAME "Normal"
ADD_STYLE_NAME ""
PIXEL_SIZE 12
POINT_SIZE 120
RESOLUTION_X 75
RESOLUTION_Y 75
SPACING "P"
AVERAGE_WIDTH 69
CHARSET_REGISTRY "iso8859"
CHARSET_ENCODING "2"
FACE_NAME "Arial BoldItalic ISO Latin2"
_DEC_DEVICE_FONTNAMES "PS=arial-bit-lat2"
COPYRIGHT "Copyright (c) 1994 Monotype Typography Ltd."
CAP_HEIGHT 10
X_HEIGHT 7
WEIGHT 10
QUAD_WIDTH 8
DEFAULT_CHAR 160
FONT_DESCENT 3
FONT_ASCENT 12
ENDPROPERTIES

CHARS 191

STARTCHAR space
ENCODING 32
SWIDTH 278 0
DWIDTH 4 0
BBX 0 0 0 0
BITMAP
ENDCHAR

STARTCHAR exclam
ENCODING 33
SWIDTH 333 0
DWIDTH 4 0
BBX 3 9 1 0
BITMAP
60
60
60
60
40
40
00
C0
C0
ENDCHAR

STARTCHAR quotedbl
ENCODING 34
SWIDTH 474 0
DWIDTH 6 0
BBX 5 4 2 5
BITMAP
D8
D8
D8
90
ENDCHAR

STARTCHAR numbersign
ENCODING 35
SWIDTH 556 0
DWIDTH 7 0
BBX 8 10 0 0
BITMAP
12
12
36
7F
24
24
FF
6C
48
48
ENDCHAR

STARTCHAR dollar
ENCODING 36
SWIDTH 556 0
DWIDTH 7 0
BBX 7 12 1 -2
BITMAP
08
3C
6A
68
70
38
1C
14
BC
78
20
20
ENDCHAR

STARTCHAR percent
ENCODING 37
SWIDTH 889 0
DWIDTH 12 0
BBX 10 10 1 -1
BITMAP
6040
D080
9100
B200
6400
0980
1340
2240
42C0
0180
ENDCHAR

STARTCHAR ampersand
ENCODING 38
SWIDTH 722 0
DWIDTH 9 0
BBX 8 9 1 0
BITMAP
1C
36
34
1C
78
CD
C7
CE
7B
ENDCHAR

STARTCHAR quoteright
ENCODING 39
SWIDTH 278 0
DWIDTH 4 0
BBX 2 4 2 5
BITMAP
40
C0
40
80
ENDCHAR

STARTCHAR parenleft
ENCODING 40
SWIDTH 333 0
DWIDTH 4 0
BBX 5 12 1 -3
BITMAP
18
30
60
60
C0
C0
C0
C0
C0
40
60
30
ENDCHAR

STARTCHAR parenright
ENCODING 41
SWIDTH 333 0
DWIDTH 4 0
BBX 6 12 -2 -3
BITMAP
30
18
08
0C
0C
0C
0C
18
18
30
60
C0
ENDCHAR

STARTCHAR asterisk
ENCODING 42
SWIDTH 389 0
DWIDTH 5 0
BBX 5 4 1 5
BITMAP
20
F8
70
50
ENDCHAR

STARTCHAR plus
ENCODING 43
SWIDTH 584 0
DWIDTH 8 0
BBX 6 6 2 2
BITMAP
30
30
FC
FC
30
30
ENDCHAR

STARTCHAR comma
ENCODING 44
SWIDTH 278 0
DWIDTH 4 0
BBX 2 4 1 -2
BITMAP
40
C0
40
80
ENDCHAR

STARTCHAR minus
ENCODING 45
SWIDTH 584 0
DWIDTH 8 0
BBX 7 2 1 4
BITMAP
FE
FE
ENDCHAR

STARTCHAR period
ENCODING 46
SWIDTH 278 0
DWIDTH 4 0
BBX 2 2 1 0
BITMAP
C0
C0
ENDCHAR

STARTCHAR slash
ENCODING 47
SWIDTH 278 0
DWIDTH 4 0
BBX 3 9 1 0
BITMAP
20
60
60
40
40
C0
C0
80
80
ENDCHAR

STARTCHAR zero
ENCODING 48
SWIDTH 556 0
DWIDTH 7 0
BBX 7 9 1 0
BITMAP
3C
76
66
C6
C6
C6
CC
DC
78
ENDCHAR

STARTCHAR one
ENCODING 49
SWIDTH 556 0
DWIDTH 7 0
BBX 5 9 2 0
BITMAP
18
78
F0
30
30
30
60
60
60
ENDCHAR

STARTCHAR two
ENCODING 50
SWIDTH 556 0
DWIDTH 7 0
BBX 7 9 1 0
BITMAP
3C
66
06
0C
18
30
60
C0
FC
ENDCHAR

STARTCHAR three
ENCODING 51
SWIDTH 556 0
DWIDTH 7 0
BBX 7 9 1 0
BITMAP
3C
66
46
0C
3C
06
06
CC
78
ENDCHAR

STARTCHAR four
ENCODING 52
SWIDTH 556 0
DWIDTH 7 0
BBX 7 9 1 0
BITMAP
04
0C
1C
3C
6C
CC
FE
18
18
ENDCHAR

STARTCHAR five
ENCODING 53
SWIDTH 556 0
DWIDTH 7 0
BBX 6 9 1 0
BITMAP
7C
40
40
F8
CC
0C
8C
D8
70
ENDCHAR

STARTCHAR six
ENCODING 54
SWIDTH 556 0
DWIDTH 7 0
BBX 6 9 1 0
BITMAP
38
6C
40
F8
EC
CC
CC
D8
70
ENDCHAR

STARTCHAR seven
ENCODING 55
SWIDTH 556 0
DWIDTH 7 0
BBX 7 9 2 0
BITMAP
FE
0C
18
18
30
30
60
60
60
ENDCHAR

STARTCHAR eight
ENCODING 56
SWIDTH 556 0
DWIDTH 7 0
BBX 7 9 1 0
BITMAP
3C
66
66
66
7C
CC
CC
CC
78
ENDCHAR

STARTCHAR nine
ENCODING 57
SWIDTH 556 0
DWIDTH 7 0
BBX 7 9 1 0
BITMAP
1C
36
66
66
6E
3C
0C
D8
70
ENDCHAR

STARTCHAR colon
ENCODING 58
SWIDTH 333 0
DWIDTH 4 0
BBX 3 7 1 0
BITMAP
60
60
00
00
00
C0
C0
ENDCHAR

STARTCHAR semicolon
ENCODING 59
SWIDTH 333 0
DWIDTH 4 0
BBX 3 9 1 -2
BITMAP
60
60
00
00
00
40
C0
40
80
ENDCHAR

STARTCHAR less
ENCODING 60
SWIDTH 584 0
DWIDTH 8 0
BBX 7 6 1 2
BITMAP
0E
38
E0
E0
38
0E
ENDCHAR

STARTCHAR equal
ENCODING 61
SWIDTH 584 0
DWIDTH 8 0
BBX 7 5 1 2
BITMAP
FE
FE
00
FE
FE
ENDCHAR

STARTCHAR greater
ENCODING 62
SWIDTH 584 0
DWIDTH 8 0
BBX 7 6 1 2
BITMAP
E0
38
0E
0E
38
E0
ENDCHAR

STARTCHAR question
ENCODING 63
SWIDTH 611 0
DWIDTH 8 0
BBX 6 9 2 0
BITMAP
78
CC
8C
18
30
60
00
C0
C0
ENDCHAR

STARTCHAR at
ENCODING 64
SWIDTH 975 0
DWIDTH 13 0
BBX 12 12 0 -3
BITMAP
0F80
3040
4EA0
5990
9190
B190
B130
B360
9DC0
4010
3060
0F80
ENDCHAR

STARTCHAR A
ENCODING 65
SWIDTH 722 0
DWIDTH 9 0
BBX 9 9 0 0
BITMAP
0180
0380
0780
0D80
1980
3180
3F80
6180
C180
ENDCHAR

STARTCHAR B
ENCODING 66
SWIDTH 722 0
DWIDTH 9 0
BBX 9 9 1 0
BITMAP
3F00
3180
3180
6300
7E00
6300
C300
C600
FC00
ENDCHAR

STARTCHAR C
ENCODING 67
SWIDTH 722 0
DWIDTH 9 0
BBX 9 9 1 0
BITMAP
1E00
3300
6180
C000
C000
C000
C300
6600
3C00
ENDCHAR

STARTCHAR D
ENCODING 68
SWIDTH 722 0
DWIDTH 9 0
BBX 9 9 1 0
BITMAP
3E00
3300
3180
6180
6180
6180
C300
CE00
F800
ENDCHAR

STARTCHAR E
ENCODING 69
SWIDTH 667 0
DWIDTH 9 0
BBX 9 9 1 0
BITMAP
3F80
3000
3000
6000
7F00
6000
C000
C000
FE00
ENDCHAR

STARTCHAR F
ENCODING 70
SWIDTH 611 0
DWIDTH 8 0
BBX 8 9 1 0
BITMAP
3F
30
30
60
7E
60
C0
C0
C0
ENDCHAR

STARTCHAR G
ENCODING 71
SWIDTH 778 0
DWIDTH 10 0
BBX 10 9 1 0
BITMAP
1F00
3180
60C0
C000
C780
C180
C300
6700
3C00
ENDCHAR

STARTCHAR H
ENCODING 72
SWIDTH 722 0
DWIDTH 9 0
BBX 9 9 1 0
BITMAP
3180
3180
3180
6300
7F00
6300
C600
C600
C600
ENDCHAR

STARTCHAR I
ENCODING 73
SWIDTH 278 0
DWIDTH 4 0
BBX 4 9 1 0
BITMAP
30
30
30
60
60
60
C0
C0
C0
ENDCHAR

STARTCHAR J
ENCODING 74
SWIDTH 556 0
DWIDTH 7 0
BBX 8 9 0 0
BITMAP
03
03
06
06
06
0C
8C
D8
70
ENDCHAR

STARTCHAR K
ENCODING 75
SWIDTH 722 0
DWIDTH 9 0
BBX 9 9 1 0
BITMAP
3180
3300
3600
6C00
7800
6C00
CC00
C600
C300
ENDCHAR

STARTCHAR L
ENCODING 76
SWIDTH 611 0
DWIDTH 8 0
BBX 7 9 1 0
BITMAP
30
30
30
60
60
60
C0
C0
FE
ENDCHAR

STARTCHAR M
ENCODING 77
SWIDTH 833 0
DWIDTH 11 0
BBX 11 9 1 0
BITMAP
3060
30E0
31E0
73C0
7AC0
6EC0
CD80
CD80
C980
ENDCHAR

STARTCHAR N
ENCODING 78
SWIDTH 722 0
DWIDTH 9 0
BBX 9 9 1 0
BITMAP
3180
3180
3180
7B00
7B00
6F00
CE00
C600
C600
ENDCHAR

STARTCHAR O
ENCODING 79
SWIDTH 778 0
DWIDTH 10 0
BBX 9 9 1 0
BITMAP
1E00
3300
6180
C180
C180
C180
C300
6600
3C00
ENDCHAR

STARTCHAR P
ENCODING 80
SWIDTH 667 0
DWIDTH 9 0
BBX 9 9 1 0
BITMAP
3F00
3180
3180
6300
7E00
6000
C000
C000
C000
ENDCHAR

STARTCHAR Q
ENCODING 81
SWIDTH 778 0
DWIDTH 10 0
BBX 9 10 1 -1
BITMAP
1E00
3300
6180
C180
C180
C180
C700
6E00
3B00
0100
ENDCHAR

STARTCHAR R
ENCODING 82
SWIDTH 722 0
DWIDTH 9 0
BBX 9 9 1 0
BITMAP
3F00
3180
3180
6180
7F00
6600
C600
C300
C300
ENDCHAR

STARTCHAR S
ENCODING 83
SWIDTH 667 0
DWIDTH 9 0
BBX 8 9 1 0
BITMAP
1E
33
61
70
3C
0E
86
CC
78
ENDCHAR

STARTCHAR T
ENCODING 84
SWIDTH 611 0
DWIDTH 8 0
BBX 8 9 2 0
BITMAP
FF
18
18
30
30
30
60
60
60
ENDCHAR

STARTCHAR U
ENCODING 85
SWIDTH 722 0
DWIDTH 9 0
BBX 9 9 1 0
BITMAP
3180
3180
6180
6300
6300
C300
C600
C600
7C00
ENDCHAR

STARTCHAR V
ENCODING 86
SWIDTH 667 0
DWIDTH 9 0
BBX 8 9 2 0
BITMAP
C3
C6
C6
CC
D8
D8
F0
E0
C0
ENDCHAR

STARTCHAR W
ENCODING 87
SWIDTH 944 0
DWIDTH 12 0
BBX 12 9 2 0
BITMAP
C630
C660
CE60
DAC0
DAC0
F380
E380
C300
C300
ENDCHAR

STARTCHAR X
ENCODING 88
SWIDTH 667 0
DWIDTH 9 0
BBX 10 9 0 0
BITMAP
60C0
3180
1B00
1E00
0C00
1C00
3600
6300
C180
ENDCHAR

STARTCHAR Y
ENCODING 89
SWIDTH 667 0
DWIDTH 9 0
BBX 8 9 3 0
BITMAP
C3
C6
6C
68
38
30
60
60
60
ENDCHAR

STARTCHAR Z
ENCODING 90
SWIDTH 611 0
DWIDTH 8 0
BBX 9 9 1 0
BITMAP
3F80
0300
0600
0C00
1800
3000
6000
C000
FE00
ENDCHAR

STARTCHAR bracketleft
ENCODING 91
SWIDTH 333 0
DWIDTH 4 0
BBX 6 12 0 -3
BITMAP
3C
30
30
30
60
60
60
60
C0
C0
C0
F0
ENDCHAR

STARTCHAR backslash
ENCODING 92
SWIDTH 278 0
DWIDTH 4 0
BBX 3 9 1 0
BITMAP
80
80
C0
C0
40
60
60
20
20
ENDCHAR

STARTCHAR bracketright
ENCODING 93
SWIDTH 333 0
DWIDTH 4 0
BBX 6 12 -1 -3
BITMAP
3C
0C
0C
0C
18
18
18
18
30
30
30
F0
ENDCHAR

STARTCHAR asciicircum
ENCODING 94
SWIDTH 584 0
DWIDTH 8 0
BBX 6 5 1 4
BITMAP
10
38
6C
6C
C4
ENDCHAR

STARTCHAR underscore
ENCODING 95
SWIDTH 556 0
DWIDTH 7 0
BBX 7 1 0 -2
BITMAP
FE
ENDCHAR

STARTCHAR quoteleft
ENCODING 96
SWIDTH 278 0
DWIDTH 4 0
BBX 2 4 2 5
BITMAP
40
80
C0
80
ENDCHAR

STARTCHAR a
ENCODING 97
SWIDTH 556 0
DWIDTH 7 0
BBX 7 7 0 0
BITMAP
3C
66
06
7E
CC
CC
76
ENDCHAR

STARTCHAR b
ENCODING 98
SWIDTH 611 0
DWIDTH 8 0
BBX 7 9 1 0
BITMAP
30
30
2C
76
66
66
C6
EC
D8
ENDCHAR

STARTCHAR c
ENCODING 99
SWIDTH 556 0
DWIDTH 7 0
BBX 7 7 1 0
BITMAP
3C
66
C0
C0
C0
CC
78
ENDCHAR

STARTCHAR d
ENCODING 100
SWIDTH 611 0
DWIDTH 8 0
BBX 8 9 1 0
BITMAP
03
03
1B
3E
66
C6
CC
DC
76
ENDCHAR

STARTCHAR e
ENCODING 101
SWIDTH 556 0
DWIDTH 8 0
BBX 7 7 1 0
BITMAP
3C
66
C6
FE
C0
EC
78
ENDCHAR

STARTCHAR f
ENCODING 102
SWIDTH 333 0
DWIDTH 4 0
BBX 6 9 1 0
BITMAP
1C
30
F8
60
60
60
C0
C0
C0
ENDCHAR

STARTCHAR g
ENCODING 103
SWIDTH 611 0
DWIDTH 8 0
BBX 8 10 0 -3
BITMAP
1B
37
63
66
66
6E
3C
0C
CC
78
ENDCHAR

STARTCHAR h
ENCODING 104
SWIDTH 611 0
DWIDTH 8 0
BBX 7 9 1 0
BITMAP
30
30
2C
76
66
66
CC
CC
CC
ENDCHAR

STARTCHAR i
ENCODING 105
SWIDTH 278 0
DWIDTH 4 0
BBX 3 9 1 0
BITMAP
60
00
60
60
60
C0
C0
C0
C0
ENDCHAR

STARTCHAR j
ENCODING 106
SWIDTH 278 0
DWIDTH 4 0
BBX 5 12 -1 -3
BITMAP
18
00
18
18
18
30
30
30
30
60
E0
C0
ENDCHAR

STARTCHAR k
ENCODING 107
SWIDTH 556 0
DWIDTH 7 0
BBX 7 9 1 0
BITMAP
30
30
36
6C
78
70
D8
CC
CC
ENDCHAR

STARTCHAR l
ENCODING 108
SWIDTH 278 0
DWIDTH 4 0
BBX 4 9 1 0
BITMAP
30
30
30
60
60
60
C0
C0
C0
ENDCHAR

STARTCHAR m
ENCODING 109
SWIDTH 889 0
DWIDTH 12 0
BBX 11 7 1 0
BITMAP
6CC0
7760
6660
6660
CCC0
CCC0
CCC0
ENDCHAR

STARTCHAR n
ENCODING 110
SWIDTH 611 0
DWIDTH 8 0
BBX 7 7 1 0
BITMAP
6C
76
66
66
CC
CC
CC
ENDCHAR

STARTCHAR o
ENCODING 111
SWIDTH 611 0
DWIDTH 8 0
BBX 7 7 1 0
BITMAP
3C
66
C6
C6
C6
CC
78
ENDCHAR

STARTCHAR p
ENCODING 112
SWIDTH 611 0
DWIDTH 8 0
BBX 8 10 0 -3
BITMAP
36
3B
33
63
63
76
6C
C0
C0
C0
ENDCHAR

STARTCHAR q
ENCODING 113
SWIDTH 611 0
DWIDTH 8 0
BBX 7 10 1 -3
BITMAP
3A
6E
C6
C6
C4
EC
7C
18
18
18
ENDCHAR

STARTCHAR r
ENCODING 114
SWIDTH 389 0
DWIDTH 5 0
BBX 5 7 1 0
BITMAP
58
78
60
60
C0
C0
C0
ENDCHAR

STARTCHAR s
ENCODING 115
SWIDTH 556 0
DWIDTH 7 0
BBX 7 7 1 0
BITMAP
3C
66
70
38
1C
CC
78
ENDCHAR

STARTCHAR t
ENCODING 116
SWIDTH 333 0
DWIDTH 4 0
BBX 4 9 1 0
BITMAP
20
60
F0
60
60
C0
C0
C0
60
ENDCHAR

STARTCHAR u
ENCODING 117
SWIDTH 611 0
DWIDTH 8 0
BBX 7 7 1 0
BITMAP
66
66
66
CC
CC
DC
6C
ENDCHAR

STARTCHAR v
ENCODING 118
SWIDTH 556 0
DWIDTH 6 0
BBX 6 7 1 0
BITMAP
CC
CC
D8
D8
F0
E0
C0
ENDCHAR

STARTCHAR w
ENCODING 119
SWIDTH 778 0
DWIDTH 10 0
BBX 10 7 1 0
BITMAP
C440
CCC0
CD80
DD80
F700
E600
C400
ENDCHAR

STARTCHAR x
ENCODING 120
SWIDTH 556 0
DWIDTH 7 0
BBX 9 7 -1 0
BITMAP
6180
3300
1E00
1C00
3C00
6600
C300
ENDCHAR

STARTCHAR y
ENCODING 121
SWIDTH 556 0
DWIDTH 7 0
BBX 8 10 0 -3
BITMAP
63
62
66
34
3C
38
30
30
60
C0
ENDCHAR

STARTCHAR z
ENCODING 122
SWIDTH 500 0
DWIDTH 7 0
BBX 7 7 1 0
BITMAP
7E
0C
18
18
30
60
FC
ENDCHAR

STARTCHAR braceleft
ENCODING 123
SWIDTH 389 0
DWIDTH 5 0
BBX 6 12 0 -3
BITMAP
0C
18
30
30
60
C0
C0
60
60
60
30
18
ENDCHAR

STARTCHAR bar
ENCODING 124
SWIDTH 280 0
DWIDTH 4 0
BBX 2 12 1 -3
BITMAP
C0
C0
C0
C0
C0
C0
C0
C0
C0
C0
C0
C0
ENDCHAR

STARTCHAR braceright
ENCODING 125
SWIDTH 389 0
DWIDTH 5 0
BBX 7 12 -2 -3
BITMAP
30
18
0C
0C
0C
06
0E
18
18
30
30
C0
ENDCHAR

STARTCHAR asciitilde
ENCODING 126
SWIDTH 584 0
DWIDTH 8 0
BBX 7 3 1 3
BITMAP
72
FE
8C
ENDCHAR

STARTCHAR space
ENCODING 160
SWIDTH 278 0
DWIDTH 4 0
BBX 0 0 0 0
BITMAP
ENDCHAR

STARTCHAR Aogonek
ENCODING 161
SWIDTH 722 0
DWIDTH 9 0
BBX 10 12 0 -3
BITMAP
0180
0380
0780
0D80
1980
3180
3F80
6180
C180
0100
0180
00C0
ENDCHAR

STARTCHAR breve
ENCODING 162
SWIDTH 333 0
DWIDTH 4 0
BBX 6 2 0 8
BITMAP
CC
78
ENDCHAR

STARTCHAR Lslash
ENCODING 163
SWIDTH 611 0
DWIDTH 8 0
BBX 7 9 1 0
BITMAP
30
34
38
60
E0
60
C0
C0
FE
ENDCHAR

STARTCHAR currency
ENCODING 164
SWIDTH 556 0
DWIDTH 7 0
BBX 6 6 1 2
BITMAP
B4
78
CC
CC
78
B4
ENDCHAR

STARTCHAR Lcaron
ENCODING 165
SWIDTH 611 0
DWIDTH 8 0
BBX 7 9 1 0
BITMAP
36
36
32
64
60
60
C0
C0
FE
ENDCHAR

STARTCHAR Sacute
ENCODING 166
SWIDTH 667 0
DWIDTH 9 0
BBX 8 12 1 0
BITMAP
06
0C
00
1E
33
61
70
3C
0E
86
CC
78
ENDCHAR

STARTCHAR section
ENCODING 167
SWIDTH 556 0
DWIDTH 7 0
BBX 8 11 0 -3
BITMAP
0F
13
38
2C
66
66
76
3C
1C
C8
F0
ENDCHAR

STARTCHAR dieresis
ENCODING 168
SWIDTH 333 0
DWIDTH 4 0
BBX 5 2 1 8
BITMAP
D8
D8
ENDCHAR

STARTCHAR Scaron
ENCODING 169
SWIDTH 667 0
DWIDTH 9 0
BBX 8 12 1 0
BITMAP
1B
0E
00
1E
33
61
70
3C
0E
86
CC
78
ENDCHAR

STARTCHAR Scommaaccent
ENCODING 170
SWIDTH 667 0
DWIDTH 9 0
BBX 8 12 1 -3
BITMAP
1E
33
61
70
3C
0E
86
CC
78
00
30
60
ENDCHAR

STARTCHAR Tcaron
ENCODING 171
SWIDTH 611 0
DWIDTH 8 0
BBX 8 12 2 0
BITMAP
1B
0E
00
FF
18
18
30
30
30
60
60
60
ENDCHAR

STARTCHAR Zacute
ENCODING 172
SWIDTH 611 0
DWIDTH 8 0
BBX 9 12 1 0
BITMAP
0300
0600
0000
3F80
0300
0600
0C00
1800
3000
6000
C000
FE00
ENDCHAR

STARTCHAR hyphen
ENCODING 173
SWIDTH 333 0
DWIDTH 4 0
BBX 3 2 1 2
BITMAP
E0
E0
ENDCHAR

STARTCHAR Zcaron
ENCODING 174
SWIDTH 611 0
DWIDTH 8 0
BBX 9 12 1 0
BITMAP
0D80
0700
0000
3F80
0300
0600
0C00
1800
3000
6000
C000
FE00
ENDCHAR

STARTCHAR Zdotaccent
ENCODING 175
SWIDTH 611 0
DWIDTH 8 0
BBX 9 12 1 0
BITMAP
0600
0600
0000
3F80
0300
0600
0C00
1800
3000
6000
C000
FE00
ENDCHAR

STARTCHAR degree
ENCODING 176
SWIDTH 400 0
DWIDTH 5 0
BBX 4 4 1 5
BITMAP
60
90
90
60
ENDCHAR

STARTCHAR aogonek
ENCODING 177
SWIDTH 556 0
DWIDTH 7 0
BBX 8 10 0 -3
BITMAP
3C
66
06
7E
CC
CC
76
04
06
03
ENDCHAR

STARTCHAR ogonek
ENCODING 178
SWIDTH 333 0
DWIDTH 4 0
BBX 3 3 1 -3
BITMAP
80
C0
60
ENDCHAR

STARTCHAR lslash
ENCODING 179
SWIDTH 278 0
DWIDTH 4 0
BBX 5 9 1 0
BITMAP
30
38
30
60
E0
60
C0
C0
C0
ENDCHAR

STARTCHAR acute
ENCODING 180
SWIDTH 333 0
DWIDTH 4 0
BBX 3 2 3 8
BITMAP
60
C0
ENDCHAR

STARTCHAR lcaron
ENCODING 181
SWIDTH 396 0
DWIDTH 4 0
BBX 6 9 1 0
BITMAP
34
34
38
60
60
60
C0
C0
C0
ENDCHAR

STARTCHAR sacute
ENCODING 182
SWIDTH 556 0
DWIDTH 7 0
BBX 7 10 1 0
BITMAP
0C
18
00
3C
66
70
38
1C
CC
78
ENDCHAR

STARTCHAR caron
ENCODING 183
SWIDTH 333 0
DWIDTH 4 0
BBX 5 2 0 8
BITMAP
D8
70
ENDCHAR

STARTCHAR commaaccent
ENCODING 184
SWIDTH 333 0
DWIDTH 4 0
BBX 3 2 1 -3
BITMAP
60
C0
ENDCHAR

STARTCHAR scaron
ENCODING 185
SWIDTH 556 0
DWIDTH 7 0
BBX 7 10 1 0
BITMAP
36
1C
00
3C
66
70
38
1C
CC
78
ENDCHAR

STARTCHAR scommaaccent
ENCODING 186
SWIDTH 556 0
DWIDTH 7 0
BBX 7 10 1 -3
BITMAP
3C
66
70
38
1C
CC
78
00
30
60
ENDCHAR

STARTCHAR tcaron
ENCODING 187
SWIDTH 479 0
DWIDTH 4 0
BBX 5 10 1 0
BITMAP
08
28
70
F0
60
60
C0
C0
C0
60
ENDCHAR

STARTCHAR zacute
ENCODING 188
SWIDTH 500 0
DWIDTH 7 0
BBX 7 10 1 0
BITMAP
0C
18
00
7E
0C
18
18
30
60
FC
ENDCHAR

STARTCHAR hungarumlaut
ENCODING 189
SWIDTH 333 0
DWIDTH 4 0
BBX 6 2 0 8
BITMAP
6C
D8
ENDCHAR

STARTCHAR zcaron
ENCODING 190
SWIDTH 500 0
DWIDTH 7 0
BBX 7 10 1 0
BITMAP
36
1C
00
7E
0C
18
18
30
60
FC
ENDCHAR

STARTCHAR zdotaccent
ENCODING 191
SWIDTH 500 0
DWIDTH 7 0
BBX 7 10 1 0
BITMAP
0C
0C
00
7E
0C
18
18
30
60
FC
ENDCHAR

STARTCHAR Racute
ENCODING 192
SWIDTH 722 0
DWIDTH 9 0
BBX 9 12 1 0
BITMAP
0300
0600
0000
3F00
3180
3180
6180
7F00
6600
C600
C300
C300
ENDCHAR

STARTCHAR Aacute
ENCODING 193
SWIDTH 722 0
DWIDTH 9 0
BBX 10 12 0 0
BITMAP
00C0
0180
0000
0180
0380
0780
0D80
1980
3180
3F80
6180
C180
ENDCHAR

STARTCHAR Acircumflex
ENCODING 194
SWIDTH 722 0
DWIDTH 9 0
BBX 11 12 0 0
BITMAP
01C0
0360
0000
0180
0380
0780
0D80
1980
3180
3F80
6180
C180
ENDCHAR

STARTCHAR Abreve
ENCODING 195
SWIDTH 722 0
DWIDTH 9 0
BBX 11 12 0 0
BITMAP
0660
03C0
0000
0180
0380
0780
0D80
1980
3180
3F80
6180
C180
ENDCHAR

STARTCHAR Adieresis
ENCODING 196
SWIDTH 722 0
DWIDTH 9 0
BBX 11 12 0 0
BITMAP
0360
0360
0000
0180
0380
0780
0D80
1980
3180
3F80
6180
C180
ENDCHAR

STARTCHAR Lacute
ENCODING 197
SWIDTH 611 0
DWIDTH 8 0
BBX 7 12 1 0
BITMAP
0C
18
00
30
30
30
60
60
60
C0
C0
FE
ENDCHAR

STARTCHAR Cacute
ENCODING 198
SWIDTH 722 0
DWIDTH 9 0
BBX 9 12 1 0
BITMAP
0600
0C00
0000
1E00
3300
6180
C000
C000
C000
C300
6600
3C00
ENDCHAR

STARTCHAR Ccedilla
ENCODING 199
SWIDTH 722 0
DWIDTH 9 0
BBX 9 12 1 -3
BITMAP
1E00
3300
6180
C000
C000
C000
C300
6600
3C00
1000
0800
3000
ENDCHAR

STARTCHAR Ccaron
ENCODING 200
SWIDTH 722 0
DWIDTH 9 0
BBX 9 12 1 0
BITMAP
1B00
0E00
0000
1E00
3300
6180
C000
C000
C000
C300
6600
3C00
ENDCHAR

STARTCHAR Eacute
ENCODING 201
SWIDTH 667 0
DWIDTH 9 0
BBX 9 12 1 0
BITMAP
0300
0600
0000
3F80
3000
3000
6000
7F00
6000
C000
C000
FE00
ENDCHAR

STARTCHAR Eogonek
ENCODING 202
SWIDTH 667 0
DWIDTH 9 0
BBX 9 12 1 -3
BITMAP
3F80
3000
3000
6000
7F00
6000
C000
C000
FE00
0800
0C00
0600
ENDCHAR

STARTCHAR Edieresis
ENCODING 203
SWIDTH 667 0
DWIDTH 9 0
BBX 9 12 1 0
BITMAP
1B00
1B00
0000
3F80
3000
3000
6000
7F00
6000
C000
C000
FE00
ENDCHAR

STARTCHAR Ecaron
ENCODING 204
SWIDTH 667 0
DWIDTH 9 0
BBX 9 12 1 0
BITMAP
1B00
0E00
0000
3F80
3000
3000
6000
7F00
6000
C000
C000
FE00
ENDCHAR

STARTCHAR Iacute
ENCODING 205
SWIDTH 278 0
DWIDTH 4 0
BBX 5 12 1 0
BITMAP
18
30
00
30
30
30
60
60
60
C0
C0
C0
ENDCHAR

STARTCHAR Icircumflex
ENCODING 206
SWIDTH 278 0
DWIDTH 4 0
BBX 6 12 1 0
BITMAP
38
6C
00
30
30
30
60
60
60
C0
C0
C0
ENDCHAR

STARTCHAR Dcaron
ENCODING 207
SWIDTH 722 0
DWIDTH 9 0
BBX 9 12 1 0
BITMAP
1B00
0E00
0000
3E00
3300
3180
6180
6180
6180
C300
CE00
F800
ENDCHAR

STARTCHAR Dcroat
ENCODING 208
SWIDTH 722 0
DWIDTH 9 0
BBX 9 9 1 0
BITMAP
3E00
3300
3180
6180
F980
6180
C300
CE00
F800
ENDCHAR

STARTCHAR Nacute
ENCODING 209
SWIDTH 722 0
DWIDTH 9 0
BBX 9 12 1 0
BITMAP
0600
0C00
0000
3180
3180
3180
7B00
7B00
6F00
CE00
C600
C600
ENDCHAR

STARTCHAR Ncaron
ENCODING 210
SWIDTH 722 0
DWIDTH 9 0
BBX 9 12 1 0
BITMAP
1B00
0E00
0000
3180
3180
3180
7B00
7B00
6F00
CE00
C600
C600
ENDCHAR

STARTCHAR Oacute
ENCODING 211
SWIDTH 778 0
DWIDTH 10 0
BBX 9 12 1 0
BITMAP
0600
0C00
0000
1E00
3300
6180
C180
C180
C180
C300
6600
3C00
ENDCHAR

STARTCHAR Ocircumflex
ENCODING 212
SWIDTH 778 0
DWIDTH 10 0
BBX 9 12 1 0
BITMAP
0E00
1B00
0000
1E00
3300
6180
C180
C180
C180
C300
6600
3C00
ENDCHAR

STARTCHAR Ohungarumlaut
ENCODING 213
SWIDTH 778 0
DWIDTH 10 0
BBX 9 12 1 0
BITMAP
0D80
1B00
0000
1E00
3300
6180
C180
C180
C180
C300
6600
3C00
ENDCHAR

STARTCHAR Odieresis
ENCODING 214
SWIDTH 778 0
DWIDTH 10 0
BBX 9 12 1 0
BITMAP
1B00
1B00
0000
1E00
3300
6180
C180
C180
C180
C300
6600
3C00
ENDCHAR

STARTCHAR multiply
ENCODING 215
SWIDTH 584 0
DWIDTH 8 0
BBX 7 5 0 2
BITMAP
66
3C
30
78
CC
ENDCHAR

STARTCHAR Rcaron
ENCODING 216
SWIDTH 722 0
DWIDTH 9 0
BBX 9 12 1 0
BITMAP
1B00
0E00
0000
3F00
3180
3180
6180
7F00
6600
C600
C300
C300
ENDCHAR

STARTCHAR Uring
ENCODING 217
SWIDTH 722 0
DWIDTH 9 0
BBX 9 12 1 0
BITMAP
0400
0A00
0400
3180
3180
6180
6300
6300
C300
C600
C600
7C00
ENDCHAR

STARTCHAR Uacute
ENCODING 218
SWIDTH 722 0
DWIDTH 9 0
BBX 9 12 1 0
BITMAP
0300
0600
0000
3180
3180
6180
6300
6300
C300
C600
C600
7C00
ENDCHAR

STARTCHAR Uhungarumlaut
ENCODING 219
SWIDTH 722 0
DWIDTH 9 0
BBX 9 12 1 0
BITMAP
0D80
1B00
0000
3180
3180
6180
6300
6300
C300
C600
C600
7C00
ENDCHAR

STARTCHAR Udieresis
ENCODING 220
SWIDTH 722 0
DWIDTH 9 0
BBX 9 12 1 0
BITMAP
1B00
1B00
0000
3180
3180
6180
6300
6300
C300
C600
C600
7C00
ENDCHAR

STARTCHAR Yacute
ENCODING 221
SWIDTH 667 0
DWIDTH 9 0
BBX 8 12 3 0
BITMAP
0C
18
00
C3
C6
6C
68
38
30
60
60
60
ENDCHAR

STARTCHAR Tcommaaccent
ENCODING 222
SWIDTH 611 0
DWIDTH 8 0
BBX 8 12 2 -3
BITMAP
FF
18
18
30
30
30
60
60
60
00
60
C0
ENDCHAR

STARTCHAR germandbls
ENCODING 223
SWIDTH 611 0
DWIDTH 8 0
BBX 7 9 1 0
BITMAP
1C
36
36
64
6C
4E
C6
D6
DC
ENDCHAR

STARTCHAR racute
ENCODING 224
SWIDTH 389 0
DWIDTH 5 0
BBX 6 10 1 0
BITMAP
0C
18
00
58
78
60
60
C0
C0
C0
ENDCHAR

STARTCHAR aacute
ENCODING 225
SWIDTH 556 0
DWIDTH 7 0
BBX 7 10 0 0
BITMAP
0C
18
00
3C
66
06
7E
CC
CC
76
ENDCHAR

STARTCHAR acircumflex
ENCODING 226
SWIDTH 556 0
DWIDTH 7 0
BBX 7 10 0 0
BITMAP
1C
36
00
3C
66
06
7E
CC
CC
76
ENDCHAR

STARTCHAR abreve
ENCODING 227
SWIDTH 556 0
DWIDTH 7 0
BBX 7 10 0 0
BITMAP
66
3C
00
3C
66
06
7E
CC
CC
76
ENDCHAR

STARTCHAR adieresis
ENCODING 228
SWIDTH 556 0
DWIDTH 7 0
BBX 7 10 0 0
BITMAP
36
36
00
3C
66
06
7E
CC
CC
76
ENDCHAR

STARTCHAR lacute
ENCODING 229
SWIDTH 278 0
DWIDTH 4 0
BBX 6 12 1 0
BITMAP
0C
18
00
30
30
30
60
60
60
C0
C0
C0
ENDCHAR

STARTCHAR cacute
ENCODING 230
SWIDTH 556 0
DWIDTH 7 0
BBX 7 10 1 0
BITMAP
0C
18
00
3C
66
C0
C0
C0
CC
78
ENDCHAR

STARTCHAR ccedilla
ENCODING 231
SWIDTH 556 0
DWIDTH 7 0
BBX 7 10 1 -3
BITMAP
3C
66
C0
C0
C0
CC
78
20
10
60
ENDCHAR

STARTCHAR ccaron
ENCODING 232
SWIDTH 556 0
DWIDTH 7 0
BBX 7 10 1 0
BITMAP
6C
38
00
3C
66
C0
C0
C0
CC
78
ENDCHAR

STARTCHAR eacute
ENCODING 233
SWIDTH 556 0
DWIDTH 8 0
BBX 7 10 1 0
BITMAP
0C
18
00
3C
66
C6
FE
C0
EC
78
ENDCHAR

STARTCHAR eogonek
ENCODING 234
SWIDTH 556 0
DWIDTH 8 0
BBX 7 10 1 -3
BITMAP
3C
66
C6
FE
C0
EC
78
10
18
0C
ENDCHAR

STARTCHAR edieresis
ENCODING 235
SWIDTH 556 0
DWIDTH 8 0
BBX 7 10 1 0
BITMAP
36
36
00
3C
66
C6
FE
C0
EC
78
ENDCHAR

STARTCHAR ecaron
ENCODING 236
SWIDTH 556 0
DWIDTH 8 0
BBX 7 10 1 0
BITMAP
36
1C
00
3C
66
C6
FE
C0
EC
78
ENDCHAR

STARTCHAR iacute
ENCODING 237
SWIDTH 278 0
DWIDTH 4 0
BBX 4 10 1 0
BITMAP
30
60
00
60
60
60
C0
C0
C0
C0
ENDCHAR

STARTCHAR icircumflex
ENCODING 238
SWIDTH 278 0
DWIDTH 4 0
BBX 5 10 1 0
BITMAP
70
D8
00
60
60
60
C0
C0
C0
C0
ENDCHAR

STARTCHAR dcaron
ENCODING 239
SWIDTH 740 0
DWIDTH 8 0
BBX 10 9 1 0
BITMAP
0340
0340
1B80
3E00
6600
C600
CC00
DC00
7600
ENDCHAR

STARTCHAR dcroat
ENCODING 240
SWIDTH 611 0
DWIDTH 8 0
BBX 9 9 1 0
BITMAP
0300
0780
1B00
3E00
6600
C600
CC00
DC00
7600
ENDCHAR

STARTCHAR nacute
ENCODING 241
SWIDTH 611 0
DWIDTH 8 0
BBX 7 10 1 0
BITMAP
0C
18
00
6C
76
66
66
CC
CC
CC
ENDCHAR

STARTCHAR ncaron
ENCODING 242
SWIDTH 611 0
DWIDTH 8 0
BBX 7 10 1 0
BITMAP
36
1C
00
6C
76
66
66
CC
CC
CC
ENDCHAR

STARTCHAR oacute
ENCODING 243
SWIDTH 611 0
DWIDTH 8 0
BBX 7 10 1 0
BITMAP
0C
18
00
3C
66
C6
C6
C6
CC
78
ENDCHAR

STARTCHAR ocircumflex
ENCODING 244
SWIDTH 611 0
DWIDTH 8 0
BBX 7 10 1 0
BITMAP
1C
36
00
3C
66
C6
C6
C6
CC
78
ENDCHAR

STARTCHAR ohungarumlaut
ENCODING 245
SWIDTH 611 0
DWIDTH 8 0
BBX 8 10 1 0
BITMAP
1B
36
00
3C
66
C6
C6
C6
CC
78
ENDCHAR

STARTCHAR odieresis
ENCODING 246
SWIDTH 611 0
DWIDTH 8 0
BBX 7 10 1 0
BITMAP
36
36
00
3C
66
C6
C6
C6
CC
78
ENDCHAR

STARTCHAR divide
ENCODING 247
SWIDTH 584 0
DWIDTH 8 0
BBX 6 8 1 0
BITMAP
30
30
00
FC
FC
00
30
30
ENDCHAR

STARTCHAR rcaron
ENCODING 248
SWIDTH 389 0
DWIDTH 5 0
BBX 6 10 1 0
BITMAP
6C
38
00
58
78
60
60
C0
C0
C0
ENDCHAR

STARTCHAR uring
ENCODING 249
SWIDTH 611 0
DWIDTH 8 0
BBX 7 11 1 0
BITMAP
08
14
08
00
66
66
66
CC
CC
DC
6C
ENDCHAR

STARTCHAR uacute
ENCODING 250
SWIDTH 611 0
DWIDTH 8 0
BBX 7 10 1 0
BITMAP
0C
18
00
66
66
66
CC
CC
DC
6C
ENDCHAR

STARTCHAR uhungarumlaut
ENCODING 251
SWIDTH 611 0
DWIDTH 8 0
BBX 8 10 1 0
BITMAP
1B
36
00
66
66
66
CC
CC
DC
6C
ENDCHAR

STARTCHAR udieresis
ENCODING 252
SWIDTH 611 0
DWIDTH 8 0
BBX 7 10 1 0
BITMAP
36
36
00
66
66
66
CC
CC
DC
6C
ENDCHAR

STARTCHAR yacute
ENCODING 253
SWIDTH 556 0
DWIDTH 7 0
BBX 8 13 0 -3
BITMAP
06
0C
00
63
62
66
34
3C
38
30
30
60
C0
ENDCHAR

STARTCHAR tcommaaccent
ENCODING 254
SWIDTH 333 0
DWIDTH 4 0
BBX 4 12 1 -3
BITMAP
20
60
F0
60
60
C0
C0
C0
60
00
60
C0
ENDCHAR

STARTCHAR dotaccent
ENCODING 255
SWIDTH 333 0
DWIDTH 4 0
BBX 2 2 2 8
BITMAP
C0
C0
ENDCHAR
ENDFONT
